<?xml version="1.0" encoding="utf-8" standalone="no"?>
<!DOCTYPE svg PUBLIC "-//W3C//DTD SVG 1.1//EN"
  "http://www.w3.org/Graphics/SVG/1.1/DTD/svg11.dtd">
<!-- Created with matplotlib (http://matplotlib.org/) -->
<svg height="633pt" version="1.1" viewBox="0 0 921 633" width="921pt" xmlns="http://www.w3.org/2000/svg" xmlns:xlink="http://www.w3.org/1999/xlink">
 <defs>
  <style type="text/css">
*{stroke-linecap:butt;stroke-linejoin:round;stroke-miterlimit:100000;}
  </style>
 </defs>
 <g id="figure_1">
  <g id="patch_1">
   <path d="M 0 633.6 
L 921.6 633.6 
L 921.6 0 
L 0 0 
z
" style="fill:#ffffff;"/>
  </g>
  <g id="axes_1">
   <g id="patch_2">
    <path d="M 115.2 427.92 
L 829.44 427.92 
L 829.44 189.84 
L 115.2 189.84 
z
" style="fill:#ffffff;"/>
   </g>
   <g id="matplotlib.axis_1">
    <g id="xtick_1">
     <g id="line2d_1">
      <defs>
       <path d="M 0 0 
L 0 0 
" id="ma0f7ccc07b" style="stroke:#262626;stroke-width:1.6;"/>
      </defs>
      <g>
       <use style="fill:#262626;stroke:#262626;stroke-width:1.6;" x="144.96" xlink:href="#ma0f7ccc07b" y="427.92"/>
      </g>
     </g>
     <g id="text_1">
      <!-- 0 -->
      <defs>
       <path d="M 4.15625 35.296875 
Q 4.15625 48 6.765625 55.734375 
Q 9.375 63.484375 14.515625 67.671875 
Q 19.671875 71.875 27.484375 71.875 
Q 33.25 71.875 37.59375 69.546875 
Q 41.9375 67.234375 44.765625 62.859375 
Q 47.609375 58.5 49.21875 52.21875 
Q 50.828125 45.953125 50.828125 35.296875 
Q 50.828125 22.703125 48.234375 14.96875 
Q 45.65625 7.234375 40.5 3 
Q 35.359375 -1.21875 27.484375 -1.21875 
Q 17.140625 -1.21875 11.234375 6.203125 
Q 4.15625 15.140625 4.15625 35.296875 
M 13.1875 35.296875 
Q 13.1875 17.671875 17.3125 11.828125 
Q 21.4375 6 27.484375 6 
Q 33.546875 6 37.671875 11.859375 
Q 41.796875 17.71875 41.796875 35.296875 
Q 41.796875 52.984375 37.671875 58.78125 
Q 33.546875 64.59375 27.390625 64.59375 
Q 21.34375 64.59375 17.71875 59.46875 
Q 13.1875 52.9375 13.1875 35.296875 
" id="ArialMT-30"/>
      </defs>
      <g style="fill:#262626;" transform="translate(140.51125 450.5725)scale(0.16 -0.16)">
       <use xlink:href="#ArialMT-30"/>
      </g>
     </g>
    </g>
    <g id="xtick_2">
     <g id="line2d_2">
      <g>
       <use style="fill:#262626;stroke:#262626;stroke-width:1.6;" x="204.48" xlink:href="#ma0f7ccc07b" y="427.92"/>
      </g>
     </g>
     <g id="text_2">
      <!-- 1 -->
      <defs>
       <path d="M 37.25 0 
L 28.46875 0 
L 28.46875 56 
Q 25.296875 52.984375 20.140625 49.953125 
Q 14.984375 46.921875 10.890625 45.40625 
L 10.890625 53.90625 
Q 18.265625 57.375 23.78125 62.296875 
Q 29.296875 67.234375 31.59375 71.875 
L 37.25 71.875 
z
" id="ArialMT-31"/>
      </defs>
      <g style="fill:#262626;" transform="translate(200.03125 450.5725)scale(0.16 -0.16)">
       <use xlink:href="#ArialMT-31"/>
      </g>
     </g>
    </g>
    <g id="xtick_3">
     <g id="line2d_3">
      <g>
       <use style="fill:#262626;stroke:#262626;stroke-width:1.6;" x="264.0" xlink:href="#ma0f7ccc07b" y="427.92"/>
      </g>
     </g>
     <g id="text_3">
      <!-- 2 -->
      <defs>
       <path d="M 50.34375 8.453125 
L 50.34375 0 
L 3.03125 0 
Q 2.9375 3.171875 4.046875 6.109375 
Q 5.859375 10.9375 9.828125 15.625 
Q 13.8125 20.3125 21.34375 26.46875 
Q 33.015625 36.03125 37.109375 41.625 
Q 41.21875 47.21875 41.21875 52.203125 
Q 41.21875 57.421875 37.46875 61 
Q 33.734375 64.59375 27.734375 64.59375 
Q 21.390625 64.59375 17.578125 60.78125 
Q 13.765625 56.984375 13.71875 50.25 
L 4.6875 51.171875 
Q 5.609375 61.28125 11.65625 66.578125 
Q 17.71875 71.875 27.9375 71.875 
Q 38.234375 71.875 44.234375 66.15625 
Q 50.25 60.453125 50.25 52 
Q 50.25 47.703125 48.484375 43.546875 
Q 46.734375 39.40625 42.65625 34.8125 
Q 38.578125 30.21875 29.109375 22.21875 
Q 21.1875 15.578125 18.9375 13.203125 
Q 16.703125 10.84375 15.234375 8.453125 
z
" id="ArialMT-32"/>
      </defs>
      <g style="fill:#262626;" transform="translate(259.55125 450.5725)scale(0.16 -0.16)">
       <use xlink:href="#ArialMT-32"/>
      </g>
     </g>
    </g>
    <g id="xtick_4">
     <g id="line2d_4">
      <g>
       <use style="fill:#262626;stroke:#262626;stroke-width:1.6;" x="323.52" xlink:href="#ma0f7ccc07b" y="427.92"/>
      </g>
     </g>
     <g id="text_4">
      <!-- 3 -->
      <defs>
       <path d="M 4.203125 18.890625 
L 12.984375 20.0625 
Q 14.5 12.59375 18.140625 9.296875 
Q 21.78125 6 27 6 
Q 33.203125 6 37.46875 10.296875 
Q 41.75 14.59375 41.75 20.953125 
Q 41.75 27 37.796875 30.921875 
Q 33.84375 34.859375 27.734375 34.859375 
Q 25.25 34.859375 21.53125 33.890625 
L 22.515625 41.609375 
Q 23.390625 41.5 23.921875 41.5 
Q 29.546875 41.5 34.03125 44.421875 
Q 38.53125 47.359375 38.53125 53.46875 
Q 38.53125 58.296875 35.25 61.46875 
Q 31.984375 64.65625 26.8125 64.65625 
Q 21.6875 64.65625 18.265625 61.421875 
Q 14.84375 58.203125 13.875 51.765625 
L 5.078125 53.328125 
Q 6.6875 62.15625 12.390625 67.015625 
Q 18.109375 71.875 26.609375 71.875 
Q 32.46875 71.875 37.390625 69.359375 
Q 42.328125 66.84375 44.9375 62.5 
Q 47.5625 58.15625 47.5625 53.265625 
Q 47.5625 48.640625 45.0625 44.828125 
Q 42.578125 41.015625 37.703125 38.765625 
Q 44.046875 37.3125 47.5625 32.6875 
Q 51.078125 28.078125 51.078125 21.140625 
Q 51.078125 11.765625 44.234375 5.25 
Q 37.40625 -1.265625 26.953125 -1.265625 
Q 17.53125 -1.265625 11.296875 4.34375 
Q 5.078125 9.96875 4.203125 18.890625 
" id="ArialMT-33"/>
      </defs>
      <g style="fill:#262626;" transform="translate(319.07125 450.5725)scale(0.16 -0.16)">
       <use xlink:href="#ArialMT-33"/>
      </g>
     </g>
    </g>
    <g id="xtick_5">
     <g id="line2d_5">
      <g>
       <use style="fill:#262626;stroke:#262626;stroke-width:1.6;" x="383.04" xlink:href="#ma0f7ccc07b" y="427.92"/>
      </g>
     </g>
     <g id="text_5">
      <!-- 4 -->
      <defs>
       <path d="M 32.328125 0 
L 32.328125 17.140625 
L 1.265625 17.140625 
L 1.265625 25.203125 
L 33.9375 71.578125 
L 41.109375 71.578125 
L 41.109375 25.203125 
L 50.78125 25.203125 
L 50.78125 17.140625 
L 41.109375 17.140625 
L 41.109375 0 
z
M 32.328125 25.203125 
L 32.328125 57.46875 
L 9.90625 25.203125 
z
" id="ArialMT-34"/>
      </defs>
      <g style="fill:#262626;" transform="translate(378.59125 450.5725)scale(0.16 -0.16)">
       <use xlink:href="#ArialMT-34"/>
      </g>
     </g>
    </g>
    <g id="xtick_6">
     <g id="line2d_6">
      <g>
       <use style="fill:#262626;stroke:#262626;stroke-width:1.6;" x="442.56" xlink:href="#ma0f7ccc07b" y="427.92"/>
      </g>
     </g>
     <g id="text_6">
      <!-- 5 -->
      <defs>
       <path d="M 4.15625 18.75 
L 13.375 19.53125 
Q 14.40625 12.796875 18.140625 9.390625 
Q 21.875 6 27.15625 6 
Q 33.5 6 37.890625 10.78125 
Q 42.28125 15.578125 42.28125 23.484375 
Q 42.28125 31 38.0625 35.34375 
Q 33.84375 39.703125 27 39.703125 
Q 22.75 39.703125 19.328125 37.765625 
Q 15.921875 35.84375 13.96875 32.765625 
L 5.71875 33.84375 
L 12.640625 70.609375 
L 48.25 70.609375 
L 48.25 62.203125 
L 19.671875 62.203125 
L 15.828125 42.96875 
Q 22.265625 47.46875 29.34375 47.46875 
Q 38.71875 47.46875 45.15625 40.96875 
Q 51.609375 34.46875 51.609375 24.265625 
Q 51.609375 14.546875 45.953125 7.46875 
Q 39.0625 -1.21875 27.15625 -1.21875 
Q 17.390625 -1.21875 11.203125 4.25 
Q 5.03125 9.71875 4.15625 18.75 
" id="ArialMT-35"/>
      </defs>
      <g style="fill:#262626;" transform="translate(438.11125 450.5725)scale(0.16 -0.16)">
       <use xlink:href="#ArialMT-35"/>
      </g>
     </g>
    </g>
    <g id="xtick_7">
     <g id="line2d_7">
      <g>
       <use style="fill:#262626;stroke:#262626;stroke-width:1.6;" x="502.08" xlink:href="#ma0f7ccc07b" y="427.92"/>
      </g>
     </g>
     <g id="text_7">
      <!-- 6 -->
      <defs>
       <path d="M 49.75 54.046875 
L 41.015625 53.375 
Q 39.84375 58.546875 37.703125 60.890625 
Q 34.125 64.65625 28.90625 64.65625 
Q 24.703125 64.65625 21.53125 62.3125 
Q 17.390625 59.28125 14.984375 53.46875 
Q 12.59375 47.65625 12.5 36.921875 
Q 15.671875 41.75 20.265625 44.09375 
Q 24.859375 46.4375 29.890625 46.4375 
Q 38.671875 46.4375 44.84375 39.96875 
Q 51.03125 33.5 51.03125 23.25 
Q 51.03125 16.5 48.125 10.71875 
Q 45.21875 4.9375 40.140625 1.859375 
Q 35.0625 -1.21875 28.609375 -1.21875 
Q 17.625 -1.21875 10.6875 6.859375 
Q 3.765625 14.9375 3.765625 33.5 
Q 3.765625 54.25 11.421875 63.671875 
Q 18.109375 71.875 29.4375 71.875 
Q 37.890625 71.875 43.28125 67.140625 
Q 48.6875 62.40625 49.75 54.046875 
M 13.875 23.1875 
Q 13.875 18.65625 15.796875 14.5 
Q 17.71875 10.359375 21.1875 8.171875 
Q 24.65625 6 28.46875 6 
Q 34.03125 6 38.03125 10.484375 
Q 42.046875 14.984375 42.046875 22.703125 
Q 42.046875 30.125 38.078125 34.390625 
Q 34.125 38.671875 28.125 38.671875 
Q 22.171875 38.671875 18.015625 34.390625 
Q 13.875 30.125 13.875 23.1875 
" id="ArialMT-36"/>
      </defs>
      <g style="fill:#262626;" transform="translate(497.63125 450.5725)scale(0.16 -0.16)">
       <use xlink:href="#ArialMT-36"/>
      </g>
     </g>
    </g>
    <g id="xtick_8">
     <g id="line2d_8">
      <g>
       <use style="fill:#262626;stroke:#262626;stroke-width:1.6;" x="561.6" xlink:href="#ma0f7ccc07b" y="427.92"/>
      </g>
     </g>
     <g id="text_8">
      <!-- 7 -->
      <defs>
       <path d="M 4.734375 62.203125 
L 4.734375 70.65625 
L 51.078125 70.65625 
L 51.078125 63.8125 
Q 44.234375 56.546875 37.515625 44.484375 
Q 30.8125 32.421875 27.15625 19.671875 
Q 24.515625 10.6875 23.78125 0 
L 14.75 0 
Q 14.890625 8.453125 18.0625 20.40625 
Q 21.234375 32.375 27.171875 43.484375 
Q 33.109375 54.59375 39.796875 62.203125 
z
" id="ArialMT-37"/>
      </defs>
      <g style="fill:#262626;" transform="translate(557.15125 450.5725)scale(0.16 -0.16)">
       <use xlink:href="#ArialMT-37"/>
      </g>
     </g>
    </g>
    <g id="xtick_9">
     <g id="line2d_9">
      <g>
       <use style="fill:#262626;stroke:#262626;stroke-width:1.6;" x="621.12" xlink:href="#ma0f7ccc07b" y="427.92"/>
      </g>
     </g>
     <g id="text_9">
      <!-- 8 -->
      <defs>
       <path d="M 17.671875 38.8125 
Q 12.203125 40.828125 9.5625 44.53125 
Q 6.9375 48.25 6.9375 53.421875 
Q 6.9375 61.234375 12.546875 66.546875 
Q 18.171875 71.875 27.484375 71.875 
Q 36.859375 71.875 42.578125 66.421875 
Q 48.296875 60.984375 48.296875 53.171875 
Q 48.296875 48.1875 45.671875 44.5 
Q 43.0625 40.828125 37.75 38.8125 
Q 44.34375 36.671875 47.78125 31.875 
Q 51.21875 27.09375 51.21875 20.453125 
Q 51.21875 11.28125 44.71875 5.03125 
Q 38.234375 -1.21875 27.640625 -1.21875 
Q 17.046875 -1.21875 10.546875 5.046875 
Q 4.046875 11.328125 4.046875 20.703125 
Q 4.046875 27.6875 7.59375 32.390625 
Q 11.140625 37.109375 17.671875 38.8125 
M 15.921875 53.71875 
Q 15.921875 48.640625 19.1875 45.40625 
Q 22.46875 42.1875 27.6875 42.1875 
Q 32.765625 42.1875 36.015625 45.375 
Q 39.265625 48.578125 39.265625 53.21875 
Q 39.265625 58.0625 35.90625 61.359375 
Q 32.5625 64.65625 27.59375 64.65625 
Q 22.5625 64.65625 19.234375 61.421875 
Q 15.921875 58.203125 15.921875 53.71875 
M 13.09375 20.65625 
Q 13.09375 16.890625 14.875 13.375 
Q 16.65625 9.859375 20.171875 7.921875 
Q 23.6875 6 27.734375 6 
Q 34.03125 6 38.125 10.046875 
Q 42.234375 14.109375 42.234375 20.359375 
Q 42.234375 26.703125 38.015625 30.859375 
Q 33.796875 35.015625 27.4375 35.015625 
Q 21.234375 35.015625 17.15625 30.90625 
Q 13.09375 26.8125 13.09375 20.65625 
" id="ArialMT-38"/>
      </defs>
      <g style="fill:#262626;" transform="translate(616.67125 450.5725)scale(0.16 -0.16)">
       <use xlink:href="#ArialMT-38"/>
      </g>
     </g>
    </g>
    <g id="xtick_10">
     <g id="line2d_10">
      <g>
       <use style="fill:#262626;stroke:#262626;stroke-width:1.6;" x="680.64" xlink:href="#ma0f7ccc07b" y="427.92"/>
      </g>
     </g>
     <g id="text_10">
      <!-- 9 -->
      <defs>
       <path d="M 5.46875 16.546875 
L 13.921875 17.328125 
Q 14.984375 11.375 18.015625 8.6875 
Q 21.046875 6 25.78125 6 
Q 29.828125 6 32.875 7.859375 
Q 35.9375 9.71875 37.890625 12.8125 
Q 39.84375 15.921875 41.15625 21.1875 
Q 42.484375 26.46875 42.484375 31.9375 
Q 42.484375 32.515625 42.4375 33.6875 
Q 39.796875 29.5 35.234375 26.875 
Q 30.671875 24.265625 25.34375 24.265625 
Q 16.453125 24.265625 10.296875 30.703125 
Q 4.15625 37.15625 4.15625 47.703125 
Q 4.15625 58.59375 10.578125 65.234375 
Q 17 71.875 26.65625 71.875 
Q 33.640625 71.875 39.421875 68.109375 
Q 45.21875 64.359375 48.21875 57.390625 
Q 51.21875 50.4375 51.21875 37.25 
Q 51.21875 23.53125 48.234375 15.40625 
Q 45.265625 7.28125 39.375 3.03125 
Q 33.5 -1.21875 25.59375 -1.21875 
Q 17.1875 -1.21875 11.859375 3.4375 
Q 6.546875 8.109375 5.46875 16.546875 
M 41.453125 48.140625 
Q 41.453125 55.71875 37.421875 60.15625 
Q 33.40625 64.59375 27.734375 64.59375 
Q 21.875 64.59375 17.53125 59.8125 
Q 13.1875 55.03125 13.1875 47.40625 
Q 13.1875 40.578125 17.3125 36.296875 
Q 21.4375 32.03125 27.484375 32.03125 
Q 33.59375 32.03125 37.515625 36.296875 
Q 41.453125 40.578125 41.453125 48.140625 
" id="ArialMT-39"/>
      </defs>
      <g style="fill:#262626;" transform="translate(676.19125 450.5725)scale(0.16 -0.16)">
       <use xlink:href="#ArialMT-39"/>
      </g>
     </g>
    </g>
    <g id="xtick_11">
     <g id="line2d_11">
      <g>
       <use style="fill:#262626;stroke:#262626;stroke-width:1.6;" x="740.16" xlink:href="#ma0f7ccc07b" y="427.92"/>
      </g>
     </g>
     <g id="text_11">
      <!-- 10 -->
      <g style="fill:#262626;" transform="translate(731.2625 450.5725)scale(0.16 -0.16)">
       <use xlink:href="#ArialMT-31"/>
       <use x="55.615234375" xlink:href="#ArialMT-30"/>
      </g>
     </g>
    </g>
    <g id="xtick_12">
     <g id="line2d_12">
      <g>
       <use style="fill:#262626;stroke:#262626;stroke-width:1.6;" x="799.68" xlink:href="#ma0f7ccc07b" y="427.92"/>
      </g>
     </g>
     <g id="text_12">
      <!-- 11 -->
      <g style="fill:#262626;" transform="translate(790.79125 450.5725)scale(0.16 -0.16)">
       <use xlink:href="#ArialMT-31"/>
       <use x="55.505859375" xlink:href="#ArialMT-31"/>
      </g>
     </g>
    </g>
    <g id="text_13">
     <!-- n -->
     <defs>
      <path d="M 6.59375 0 
L 6.59375 51.859375 
L 14.5 51.859375 
L 14.5 44.484375 
Q 20.21875 53.03125 31 53.03125 
Q 35.6875 53.03125 39.625 51.34375 
Q 43.5625 49.65625 45.515625 46.921875 
Q 47.46875 44.1875 48.25 40.4375 
Q 48.734375 37.984375 48.734375 31.890625 
L 48.734375 0 
L 39.9375 0 
L 39.9375 31.546875 
Q 39.9375 36.921875 38.90625 39.578125 
Q 37.890625 42.234375 35.28125 43.8125 
Q 32.671875 45.40625 29.15625 45.40625 
Q 23.53125 45.40625 19.453125 41.84375 
Q 15.375 38.28125 15.375 28.328125 
L 15.375 0 
z
" id="ArialMT-6e"/>
     </defs>
     <g style="fill:#262626;" transform="translate(467.426375 471.35025)scale(0.17600000000000002 -0.17600000000000002)">
      <use xlink:href="#ArialMT-6e"/>
     </g>
    </g>
   </g>
   <g id="matplotlib.axis_2">
    <g id="ytick_1">
     <g id="line2d_13">
      <g>
       <use style="fill:#262626;stroke:#262626;stroke-width:1.6;" x="115.2" xlink:href="#ma0f7ccc07b" y="398.16"/>
      </g>
     </g>
     <g id="text_14">
      <!-- 3 -->
      <g style="fill:#262626;" transform="translate(100.82 402.60875)rotate(-90.0)scale(0.16 -0.16)">
       <use xlink:href="#ArialMT-33"/>
      </g>
     </g>
    </g>
    <g id="ytick_2">
     <g id="line2d_14">
      <g>
       <use style="fill:#262626;stroke:#262626;stroke-width:1.6;" x="115.2" xlink:href="#ma0f7ccc07b" y="338.64"/>
      </g>
     </g>
     <g id="text_15">
      <!-- 2 -->
      <g style="fill:#262626;" transform="translate(100.82 343.08875)rotate(-90.0)scale(0.16 -0.16)">
       <use xlink:href="#ArialMT-32"/>
      </g>
     </g>
    </g>
    <g id="ytick_3">
     <g id="line2d_15">
      <g>
       <use style="fill:#262626;stroke:#262626;stroke-width:1.6;" x="115.2" xlink:href="#ma0f7ccc07b" y="279.12"/>
      </g>
     </g>
     <g id="text_16">
      <!-- 1 -->
      <g style="fill:#262626;" transform="translate(100.82 283.56875)rotate(-90.0)scale(0.16 -0.16)">
       <use xlink:href="#ArialMT-31"/>
      </g>
     </g>
    </g>
    <g id="ytick_4">
     <g id="line2d_16">
      <g>
       <use style="fill:#262626;stroke:#262626;stroke-width:1.6;" x="115.2" xlink:href="#ma0f7ccc07b" y="219.6"/>
      </g>
     </g>
     <g id="text_17">
      <!-- 0 -->
      <g style="fill:#262626;" transform="translate(100.82 224.04875)rotate(-90.0)scale(0.16 -0.16)">
       <use xlink:href="#ArialMT-30"/>
      </g>
     </g>
    </g>
    <g id="text_18">
     <!-- m -->
     <defs>
      <path d="M 6.59375 0 
L 6.59375 51.859375 
L 14.453125 51.859375 
L 14.453125 44.578125 
Q 16.890625 48.390625 20.9375 50.703125 
Q 25 53.03125 30.171875 53.03125 
Q 35.9375 53.03125 39.625 50.640625 
Q 43.3125 48.25 44.828125 43.953125 
Q 50.984375 53.03125 60.84375 53.03125 
Q 68.5625 53.03125 72.703125 48.75 
Q 76.859375 44.484375 76.859375 35.59375 
L 76.859375 0 
L 68.109375 0 
L 68.109375 32.671875 
Q 68.109375 37.9375 67.25 40.25 
Q 66.40625 42.578125 64.15625 43.984375 
Q 61.921875 45.40625 58.890625 45.40625 
Q 53.421875 45.40625 49.796875 41.765625 
Q 46.1875 38.140625 46.1875 30.125 
L 46.1875 0 
L 37.40625 0 
L 37.40625 33.6875 
Q 37.40625 39.546875 35.25 42.46875 
Q 33.109375 45.40625 28.21875 45.40625 
Q 24.515625 45.40625 21.359375 43.453125 
Q 18.21875 41.5 16.796875 37.734375 
Q 15.375 33.984375 15.375 26.90625 
L 15.375 0 
z
" id="ArialMT-6d"/>
     </defs>
     <g style="fill:#262626;" transform="translate(80.8695 316.210125)rotate(-90.0)scale(0.17600000000000002 -0.17600000000000002)">
      <use xlink:href="#ArialMT-6d"/>
     </g>
    </g>
   </g>
   <g id="QuadMesh_1">
    <path clip-path="url(#pb2c1d81d8a)" d="M 115.2 427.92 
L 174.72 427.92 
L 174.72 368.4 
L 115.2 368.4 
L 115.2 427.92 
" style="fill:#e5eff9;"/>
    <path clip-path="url(#pb2c1d81d8a)" d="M 174.72 427.92 
L 234.24 427.92 
L 234.24 368.4 
L 174.72 368.4 
L 174.72 427.92 
" style="fill:#dfecf7;"/>
    <path clip-path="url(#pb2c1d81d8a)" d="M 234.24 427.92 
L 293.76 427.92 
L 293.76 368.4 
L 234.24 368.4 
L 234.24 427.92 
" style="fill:#d8e7f5;"/>
    <path clip-path="url(#pb2c1d81d8a)" d="M 293.76 427.92 
L 353.28 427.92 
L 353.28 368.4 
L 293.76 368.4 
L 293.76 427.92 
" style="fill:#d0e1f2;"/>
    <path clip-path="url(#pb2c1d81d8a)" d="M 353.28 427.92 
L 412.8 427.92 
L 412.8 368.4 
L 353.28 368.4 
L 353.28 427.92 
" style="fill:#c7dbef;"/>
    <path clip-path="url(#pb2c1d81d8a)" d="M 412.8 427.92 
L 472.32 427.92 
L 472.32 368.4 
L 412.8 368.4 
L 412.8 427.92 
" style="fill:#b7d4ea;"/>
    <path clip-path="url(#pb2c1d81d8a)" d="M 472.32 427.92 
L 531.84 427.92 
L 531.84 368.4 
L 472.32 368.4 
L 472.32 427.92 
" style="fill:#a5cde3;"/>
    <path clip-path="url(#pb2c1d81d8a)" d="M 531.84 427.92 
L 591.36 427.92 
L 591.36 368.4 
L 531.84 368.4 
L 531.84 427.92 
" style="fill:#8dc1dd;"/>
    <path clip-path="url(#pb2c1d81d8a)" d="M 591.36 427.92 
L 650.88 427.92 
L 650.88 368.4 
L 591.36 368.4 
L 591.36 427.92 
" style="fill:#6fb0d7;"/>
    <path clip-path="url(#pb2c1d81d8a)" d="M 650.88 427.92 
L 710.4 427.92 
L 710.4 368.4 
L 650.88 368.4 
L 650.88 427.92 
" style="fill:#549fcd;"/>
    <path clip-path="url(#pb2c1d81d8a)" d="M 710.4 427.92 
L 769.92 427.92 
L 769.92 368.4 
L 710.4 368.4 
L 710.4 427.92 
" style="fill:#3989c1;"/>
    <path clip-path="url(#pb2c1d81d8a)" d="M 769.92 427.92 
L 829.44 427.92 
L 829.44 368.4 
L 769.92 368.4 
L 769.92 427.92 
" style="fill:#206fb4;"/>
    <path clip-path="url(#pb2c1d81d8a)" d="M 115.2 368.4 
L 174.72 368.4 
L 174.72 308.88 
L 115.2 308.88 
L 115.2 368.4 
" style="fill:#eaf2fb;"/>
    <path clip-path="url(#pb2c1d81d8a)" d="M 174.72 368.4 
L 234.24 368.4 
L 234.24 308.88 
L 174.72 308.88 
L 174.72 368.4 
" style="fill:#e1edf8;"/>
    <path clip-path="url(#pb2c1d81d8a)" d="M 234.24 368.4 
L 293.76 368.4 
L 293.76 308.88 
L 234.24 308.88 
L 234.24 368.4 
" style="fill:#d9e7f5;"/>
    <path clip-path="url(#pb2c1d81d8a)" d="M 293.76 368.4 
L 353.28 368.4 
L 353.28 308.88 
L 293.76 308.88 
L 293.76 368.4 
" style="fill:#cfe1f2;"/>
    <path clip-path="url(#pb2c1d81d8a)" d="M 353.28 368.4 
L 412.8 368.4 
L 412.8 308.88 
L 353.28 308.88 
L 353.28 368.4 
" style="fill:#c3daee;"/>
    <path clip-path="url(#pb2c1d81d8a)" d="M 412.8 368.4 
L 472.32 368.4 
L 472.32 308.88 
L 412.8 308.88 
L 412.8 368.4 
" style="fill:#afd1e7;"/>
    <path clip-path="url(#pb2c1d81d8a)" d="M 472.32 368.4 
L 531.84 368.4 
L 531.84 308.88 
L 472.32 308.88 
L 472.32 368.4 
" style="fill:#97c6df;"/>
    <path clip-path="url(#pb2c1d81d8a)" d="M 531.84 368.4 
L 591.36 368.4 
L 591.36 308.88 
L 531.84 308.88 
L 531.84 368.4 
" style="fill:#77b5d9;"/>
    <path clip-path="url(#pb2c1d81d8a)" d="M 591.36 368.4 
L 650.88 368.4 
L 650.88 308.88 
L 591.36 308.88 
L 591.36 368.4 
" style="fill:#5aa2cf;"/>
    <path clip-path="url(#pb2c1d81d8a)" d="M 650.88 368.4 
L 710.4 368.4 
L 710.4 308.88 
L 650.88 308.88 
L 650.88 368.4 
" style="fill:#3b8bc2;"/>
    <path clip-path="url(#pb2c1d81d8a)" d="M 710.4 368.4 
L 769.92 368.4 
L 769.92 308.88 
L 710.4 308.88 
L 710.4 368.4 
" style="fill:#2070b4;"/>
    <path clip-path="url(#pb2c1d81d8a)" d="M 769.92 368.4 
L 829.44 368.4 
L 829.44 308.88 
L 769.92 308.88 
L 769.92 368.4 
" style="fill:#09529d;"/>
    <path clip-path="url(#pb2c1d81d8a)" d="M 115.2 308.88 
L 174.72 308.88 
L 174.72 249.36 
L 115.2 249.36 
L 115.2 308.88 
" style="fill:#f1f7fd;"/>
    <path clip-path="url(#pb2c1d81d8a)" d="M 174.72 308.88 
L 234.24 308.88 
L 234.24 249.36 
L 174.72 249.36 
L 174.72 308.88 
" style="fill:#eaf2fb;"/>
    <path clip-path="url(#pb2c1d81d8a)" d="M 234.24 308.88 
L 293.76 308.88 
L 293.76 249.36 
L 234.24 249.36 
L 234.24 308.88 
" style="fill:#e1edf8;"/>
    <path clip-path="url(#pb2c1d81d8a)" d="M 293.76 308.88 
L 353.28 308.88 
L 353.28 249.36 
L 293.76 249.36 
L 293.76 308.88 
" style="fill:#d9e7f5;"/>
    <path clip-path="url(#pb2c1d81d8a)" d="M 353.28 308.88 
L 412.8 308.88 
L 412.8 249.36 
L 353.28 249.36 
L 353.28 308.88 
" style="fill:#cfe1f2;"/>
    <path clip-path="url(#pb2c1d81d8a)" d="M 412.8 308.88 
L 472.32 308.88 
L 472.32 249.36 
L 412.8 249.36 
L 412.8 308.88 
" style="fill:#c3daee;"/>
    <path clip-path="url(#pb2c1d81d8a)" d="M 472.32 308.88 
L 531.84 308.88 
L 531.84 249.36 
L 472.32 249.36 
L 472.32 308.88 
" style="fill:#afd1e7;"/>
    <path clip-path="url(#pb2c1d81d8a)" d="M 531.84 308.88 
L 591.36 308.88 
L 591.36 249.36 
L 531.84 249.36 
L 531.84 308.88 
" style="fill:#97c6df;"/>
    <path clip-path="url(#pb2c1d81d8a)" d="M 591.36 308.88 
L 650.88 308.88 
L 650.88 249.36 
L 591.36 249.36 
L 591.36 308.88 
" style="fill:#3b8bc2;"/>
    <path clip-path="url(#pb2c1d81d8a)" d="M 650.88 308.88 
L 710.4 308.88 
L 710.4 249.36 
L 650.88 249.36 
L 650.88 308.88 
" style="fill:#2070b4;"/>
    <path clip-path="url(#pb2c1d81d8a)" d="M 710.4 308.88 
L 769.92 308.88 
L 769.92 249.36 
L 710.4 249.36 
L 710.4 308.88 
" style="fill:#09529d;"/>
    <path clip-path="url(#pb2c1d81d8a)" d="M 769.92 308.88 
L 829.44 308.88 
L 829.44 249.36 
L 769.92 249.36 
L 769.92 308.88 
" style="fill:#08306b;"/>
    <path clip-path="url(#pb2c1d81d8a)" d="M 115.2 249.36 
L 174.72 249.36 
L 174.72 189.84 
L 115.2 189.84 
L 115.2 249.36 
" style="fill:#f7fbff;"/>
    <path clip-path="url(#pb2c1d81d8a)" d="M 174.72 249.36 
L 234.24 249.36 
L 234.24 189.84 
L 174.72 189.84 
L 174.72 249.36 
" style="fill:#f7fbff;"/>
    <path clip-path="url(#pb2c1d81d8a)" d="M 234.24 249.36 
L 293.76 249.36 
L 293.76 189.84 
L 234.24 189.84 
L 234.24 249.36 
" style="fill:#f7fbff;"/>
    <path clip-path="url(#pb2c1d81d8a)" d="M 293.76 249.36 
L 353.28 249.36 
L 353.28 189.84 
L 293.76 189.84 
L 293.76 249.36 
" style="fill:#f7fbff;"/>
    <path clip-path="url(#pb2c1d81d8a)" d="M 353.28 249.36 
L 412.8 249.36 
L 412.8 189.84 
L 353.28 189.84 
L 353.28 249.36 
" style="fill:#f7fbff;"/>
    <path clip-path="url(#pb2c1d81d8a)" d="M 412.8 249.36 
L 472.32 249.36 
L 472.32 189.84 
L 412.8 189.84 
L 412.8 249.36 
" style="fill:#f7fbff;"/>
    <path clip-path="url(#pb2c1d81d8a)" d="M 472.32 249.36 
L 531.84 249.36 
L 531.84 189.84 
L 472.32 189.84 
L 472.32 249.36 
" style="fill:#f7fbff;"/>
    <path clip-path="url(#pb2c1d81d8a)" d="M 531.84 249.36 
L 591.36 249.36 
L 591.36 189.84 
L 531.84 189.84 
L 531.84 249.36 
" style="fill:#f7fbff;"/>
    <path clip-path="url(#pb2c1d81d8a)" d="M 591.36 249.36 
L 650.88 249.36 
L 650.88 189.84 
L 591.36 189.84 
L 591.36 249.36 
" style="fill:#f7fbff;"/>
    <path clip-path="url(#pb2c1d81d8a)" d="M 650.88 249.36 
L 710.4 249.36 
L 710.4 189.84 
L 650.88 189.84 
L 650.88 249.36 
" style="fill:#f7fbff;"/>
    <path clip-path="url(#pb2c1d81d8a)" d="M 710.4 249.36 
L 769.92 249.36 
L 769.92 189.84 
L 710.4 189.84 
L 710.4 249.36 
" style="fill:#f7fbff;"/>
    <path clip-path="url(#pb2c1d81d8a)" d="M 769.92 249.36 
L 829.44 249.36 
L 829.44 189.84 
L 769.92 189.84 
L 769.92 249.36 
" style="fill:#f7fbff;"/>
   </g>
   <g id="text_19">
    <!-- &gt; -->
    <defs>
     <path d="M 52.875 31.296875 
L 5.46875 11.03125 
L 5.46875 19.78125 
L 43.015625 35.359375 
L 5.46875 50.78125 
L 5.46875 59.515625 
L 52.875 39.5 
z
" id="ArialMT-3e"/>
    </defs>
    <g style="fill:#262626;" transform="translate(139.353 403.1235)scale(0.19200000000000003 -0.19200000000000003)">
     <use xlink:href="#ArialMT-3e"/>
    </g>
   </g>
   <g id="text_20">
    <!-- &gt; -->
    <g style="fill:#262626;" transform="translate(198.873 403.1235)scale(0.19200000000000003 -0.19200000000000003)">
     <use xlink:href="#ArialMT-3e"/>
    </g>
   </g>
   <g id="text_21">
    <!-- &gt; -->
    <g style="fill:#262626;" transform="translate(258.393 403.1235)scale(0.19200000000000003 -0.19200000000000003)">
     <use xlink:href="#ArialMT-3e"/>
    </g>
   </g>
   <g id="text_22">
    <!-- &gt; -->
    <g style="fill:#262626;" transform="translate(317.913 403.1235)scale(0.19200000000000003 -0.19200000000000003)">
     <use xlink:href="#ArialMT-3e"/>
    </g>
   </g>
   <g id="text_23">
    <!-- &gt; -->
    <g style="fill:#262626;" transform="translate(377.433 403.1235)scale(0.19200000000000003 -0.19200000000000003)">
     <use xlink:href="#ArialMT-3e"/>
    </g>
   </g>
   <g id="text_24">
    <!-- &gt; -->
    <g style="fill:#262626;" transform="translate(436.953 403.1235)scale(0.19200000000000003 -0.19200000000000003)">
     <use xlink:href="#ArialMT-3e"/>
    </g>
   </g>
   <g id="text_25">
    <!-- &gt; -->
    <g style="fill:#262626;" transform="translate(496.473 403.1235)scale(0.19200000000000003 -0.19200000000000003)">
     <use xlink:href="#ArialMT-3e"/>
    </g>
   </g>
   <g id="text_26">
    <!-- &gt; -->
    <g style="fill:#262626;" transform="translate(555.993 403.1235)scale(0.19200000000000003 -0.19200000000000003)">
     <use xlink:href="#ArialMT-3e"/>
    </g>
   </g>
   <g id="text_27">
    <!-- &gt; -->
    <g style="fill:#ffffff;" transform="translate(615.513 403.1235)scale(0.19200000000000003 -0.19200000000000003)">
     <use xlink:href="#ArialMT-3e"/>
    </g>
   </g>
   <g id="text_28">
    <!-- &gt; -->
    <g style="fill:#ffffff;" transform="translate(675.033 403.1235)scale(0.19200000000000003 -0.19200000000000003)">
     <use xlink:href="#ArialMT-3e"/>
    </g>
   </g>
   <g id="text_29">
    <!-- &gt; -->
    <g style="fill:#ffffff;" transform="translate(734.553 403.1235)scale(0.19200000000000003 -0.19200000000000003)">
     <use xlink:href="#ArialMT-3e"/>
    </g>
   </g>
   <g id="text_30">
    <!-- ^ -->
    <defs>
     <path d="M 11.671875 33.6875 
L 2.640625 33.6875 
L 19.875 72.796875 
L 26.953125 72.796875 
L 44.28125 33.6875 
L 35.453125 33.6875 
L 23.390625 62.84375 
z
" id="ArialMT-5e"/>
    </defs>
    <g style="fill:#ffffff;" transform="translate(795.1755 403.1235)scale(0.19200000000000003 -0.19200000000000003)">
     <use xlink:href="#ArialMT-5e"/>
    </g>
   </g>
   <g id="text_31">
    <!-- &gt; -->
    <g style="fill:#262626;" transform="translate(139.353 343.6035)scale(0.19200000000000003 -0.19200000000000003)">
     <use xlink:href="#ArialMT-3e"/>
    </g>
   </g>
   <g id="text_32">
    <!-- &gt; -->
    <g style="fill:#262626;" transform="translate(198.873 343.6035)scale(0.19200000000000003 -0.19200000000000003)">
     <use xlink:href="#ArialMT-3e"/>
    </g>
   </g>
   <g id="text_33">
    <!-- &gt; -->
    <g style="fill:#262626;" transform="translate(258.393 343.6035)scale(0.19200000000000003 -0.19200000000000003)">
     <use xlink:href="#ArialMT-3e"/>
    </g>
   </g>
   <g id="text_34">
    <!-- &gt; -->
    <g style="fill:#262626;" transform="translate(317.913 343.6035)scale(0.19200000000000003 -0.19200000000000003)">
     <use xlink:href="#ArialMT-3e"/>
    </g>
   </g>
   <g id="text_35">
    <!-- &gt; -->
    <g style="fill:#262626;" transform="translate(377.433 343.6035)scale(0.19200000000000003 -0.19200000000000003)">
     <use xlink:href="#ArialMT-3e"/>
    </g>
   </g>
   <g id="text_36">
    <!-- &gt; -->
    <g style="fill:#262626;" transform="translate(436.953 343.6035)scale(0.19200000000000003 -0.19200000000000003)">
     <use xlink:href="#ArialMT-3e"/>
    </g>
   </g>
   <g id="text_37">
    <!-- &gt; -->
    <g style="fill:#262626;" transform="translate(496.473 343.6035)scale(0.19200000000000003 -0.19200000000000003)">
     <use xlink:href="#ArialMT-3e"/>
    </g>
   </g>
   <g id="text_38">
    <!-- &gt; -->
    <g style="fill:#262626;" transform="translate(555.993 343.6035)scale(0.19200000000000003 -0.19200000000000003)">
     <use xlink:href="#ArialMT-3e"/>
    </g>
   </g>
   <g id="text_39">
    <!-- &gt; -->
    <g style="fill:#ffffff;" transform="translate(615.513 343.6035)scale(0.19200000000000003 -0.19200000000000003)">
     <use xlink:href="#ArialMT-3e"/>
    </g>
   </g>
   <g id="text_40">
    <!-- ^ -->
    <g style="fill:#ffffff;" transform="translate(676.1355 343.6035)scale(0.19200000000000003 -0.19200000000000003)">
     <use xlink:href="#ArialMT-5e"/>
    </g>
   </g>
   <g id="text_41">
    <!-- ^ -->
    <g style="fill:#ffffff;" transform="translate(735.6555 343.6035)scale(0.19200000000000003 -0.19200000000000003)">
     <use xlink:href="#ArialMT-5e"/>
    </g>
   </g>
   <g id="text_42">
    <!-- ^ -->
    <g style="fill:#ffffff;" transform="translate(795.1755 343.6035)scale(0.19200000000000003 -0.19200000000000003)">
     <use xlink:href="#ArialMT-5e"/>
    </g>
   </g>
   <g id="text_43">
    <!-- &gt; -->
    <g style="fill:#262626;" transform="translate(139.353 284.0835)scale(0.19200000000000003 -0.19200000000000003)">
     <use xlink:href="#ArialMT-3e"/>
    </g>
   </g>
   <g id="text_44">
    <!-- &gt; -->
    <g style="fill:#262626;" transform="translate(198.873 284.0835)scale(0.19200000000000003 -0.19200000000000003)">
     <use xlink:href="#ArialMT-3e"/>
    </g>
   </g>
   <g id="text_45">
    <!-- &gt; -->
    <g style="fill:#262626;" transform="translate(258.393 284.0835)scale(0.19200000000000003 -0.19200000000000003)">
     <use xlink:href="#ArialMT-3e"/>
    </g>
   </g>
   <g id="text_46">
    <!-- &gt; -->
    <g style="fill:#262626;" transform="translate(317.913 284.0835)scale(0.19200000000000003 -0.19200000000000003)">
     <use xlink:href="#ArialMT-3e"/>
    </g>
   </g>
   <g id="text_47">
    <!-- &gt; -->
    <g style="fill:#262626;" transform="translate(377.433 284.0835)scale(0.19200000000000003 -0.19200000000000003)">
     <use xlink:href="#ArialMT-3e"/>
    </g>
   </g>
   <g id="text_48">
    <!-- &gt; -->
    <g style="fill:#262626;" transform="translate(436.953 284.0835)scale(0.19200000000000003 -0.19200000000000003)">
     <use xlink:href="#ArialMT-3e"/>
    </g>
   </g>
   <g id="text_49">
    <!-- &gt; -->
    <g style="fill:#262626;" transform="translate(496.473 284.0835)scale(0.19200000000000003 -0.19200000000000003)">
     <use xlink:href="#ArialMT-3e"/>
    </g>
   </g>
   <g id="text_50">
    <!-- v -->
    <defs>
     <path d="M 21 0 
L 1.265625 51.859375 
L 10.546875 51.859375 
L 21.6875 20.796875 
Q 23.484375 15.765625 25 10.359375 
Q 26.171875 14.453125 28.265625 20.21875 
L 39.796875 51.859375 
L 48.828125 51.859375 
L 29.203125 0 
z
" id="ArialMT-76"/>
    </defs>
    <g style="fill:#262626;" transform="translate(556.8 284.0835)scale(0.19200000000000003 -0.19200000000000003)">
     <use xlink:href="#ArialMT-76"/>
    </g>
   </g>
   <g id="text_51">
    <!-- &gt; -->
    <g style="fill:#ffffff;" transform="translate(615.513 284.0835)scale(0.19200000000000003 -0.19200000000000003)">
     <use xlink:href="#ArialMT-3e"/>
    </g>
   </g>
   <g id="text_52">
    <!-- &gt; -->
    <g style="fill:#ffffff;" transform="translate(675.033 284.0835)scale(0.19200000000000003 -0.19200000000000003)">
     <use xlink:href="#ArialMT-3e"/>
    </g>
   </g>
   <g id="text_53">
    <!-- &gt; -->
    <g style="fill:#ffffff;" transform="translate(734.553 284.0835)scale(0.19200000000000003 -0.19200000000000003)">
     <use xlink:href="#ArialMT-3e"/>
    </g>
   </g>
   <g id="text_54">
    <!-- ^ -->
    <g style="fill:#ffffff;" transform="translate(795.1755 284.0835)scale(0.19200000000000003 -0.19200000000000003)">
     <use xlink:href="#ArialMT-5e"/>
    </g>
   </g>
   <g id="text_55">
    <!-- v -->
    <g style="fill:#262626;" transform="translate(140.16 224.5635)scale(0.19200000000000003 -0.19200000000000003)">
     <use xlink:href="#ArialMT-76"/>
    </g>
   </g>
   <g id="text_56">
    <!-- c -->
    <defs>
     <path d="M 40.4375 19 
L 49.078125 17.875 
Q 47.65625 8.9375 41.8125 3.875 
Q 35.984375 -1.171875 27.484375 -1.171875 
Q 16.84375 -1.171875 10.375 5.78125 
Q 3.90625 12.75 3.90625 25.734375 
Q 3.90625 34.125 6.6875 40.421875 
Q 9.46875 46.734375 15.15625 49.875 
Q 20.84375 53.03125 27.546875 53.03125 
Q 35.984375 53.03125 41.359375 48.75 
Q 46.734375 44.484375 48.25 36.625 
L 39.703125 35.296875 
Q 38.484375 40.53125 35.375 43.15625 
Q 32.28125 45.796875 27.875 45.796875 
Q 21.234375 45.796875 17.078125 41.03125 
Q 12.9375 36.28125 12.9375 25.984375 
Q 12.9375 15.53125 16.9375 10.796875 
Q 20.953125 6.0625 27.390625 6.0625 
Q 32.5625 6.0625 36.03125 9.234375 
Q 39.5 12.40625 40.4375 19 
" id="ArialMT-63"/>
    </defs>
    <g style="fill:#262626;" transform="translate(199.68 224.5635)scale(0.19200000000000003 -0.19200000000000003)">
     <use xlink:href="#ArialMT-63"/>
    </g>
   </g>
   <g id="text_57">
    <!-- c -->
    <g style="fill:#262626;" transform="translate(259.2 224.5635)scale(0.19200000000000003 -0.19200000000000003)">
     <use xlink:href="#ArialMT-63"/>
    </g>
   </g>
   <g id="text_58">
    <!-- c -->
    <g style="fill:#262626;" transform="translate(318.72 224.5635)scale(0.19200000000000003 -0.19200000000000003)">
     <use xlink:href="#ArialMT-63"/>
    </g>
   </g>
   <g id="text_59">
    <!-- c -->
    <g style="fill:#262626;" transform="translate(378.24 224.5635)scale(0.19200000000000003 -0.19200000000000003)">
     <use xlink:href="#ArialMT-63"/>
    </g>
   </g>
   <g id="text_60">
    <!-- c -->
    <g style="fill:#262626;" transform="translate(437.76 224.5635)scale(0.19200000000000003 -0.19200000000000003)">
     <use xlink:href="#ArialMT-63"/>
    </g>
   </g>
   <g id="text_61">
    <!-- c -->
    <g style="fill:#262626;" transform="translate(497.28 224.5635)scale(0.19200000000000003 -0.19200000000000003)">
     <use xlink:href="#ArialMT-63"/>
    </g>
   </g>
   <g id="text_62">
    <!-- c -->
    <g style="fill:#262626;" transform="translate(556.8 224.5635)scale(0.19200000000000003 -0.19200000000000003)">
     <use xlink:href="#ArialMT-63"/>
    </g>
   </g>
   <g id="text_63">
    <!-- c -->
    <g style="fill:#262626;" transform="translate(616.32 224.5635)scale(0.19200000000000003 -0.19200000000000003)">
     <use xlink:href="#ArialMT-63"/>
    </g>
   </g>
   <g id="text_64">
    <!-- c -->
    <g style="fill:#262626;" transform="translate(675.84 224.5635)scale(0.19200000000000003 -0.19200000000000003)">
     <use xlink:href="#ArialMT-63"/>
    </g>
   </g>
   <g id="text_65">
    <!-- c -->
    <g style="fill:#262626;" transform="translate(735.36 224.5635)scale(0.19200000000000003 -0.19200000000000003)">
     <use xlink:href="#ArialMT-63"/>
    </g>
   </g>
   <g id="text_66">
    <!-- g -->
    <defs>
     <path d="M 4.984375 -4.296875 
L 13.53125 -5.5625 
Q 14.0625 -9.515625 16.5 -11.328125 
Q 19.78125 -13.765625 25.4375 -13.765625 
Q 31.546875 -13.765625 34.859375 -11.328125 
Q 38.1875 -8.890625 39.359375 -4.5 
Q 40.046875 -1.8125 39.984375 6.78125 
Q 34.234375 0 25.640625 0 
Q 14.9375 0 9.078125 7.71875 
Q 3.21875 15.4375 3.21875 26.21875 
Q 3.21875 33.640625 5.90625 39.90625 
Q 8.59375 46.1875 13.6875 49.609375 
Q 18.796875 53.03125 25.6875 53.03125 
Q 34.859375 53.03125 40.828125 45.609375 
L 40.828125 51.859375 
L 48.921875 51.859375 
L 48.921875 7.03125 
Q 48.921875 -5.078125 46.453125 -10.125 
Q 44 -15.1875 38.640625 -18.109375 
Q 33.296875 -21.046875 25.484375 -21.046875 
Q 16.21875 -21.046875 10.5 -16.875 
Q 4.78125 -12.703125 4.984375 -4.296875 
M 12.25 26.859375 
Q 12.25 16.65625 16.296875 11.96875 
Q 20.359375 7.28125 26.46875 7.28125 
Q 32.515625 7.28125 36.609375 11.9375 
Q 40.71875 16.609375 40.71875 26.5625 
Q 40.71875 36.078125 36.5 40.90625 
Q 32.28125 45.75 26.3125 45.75 
Q 20.453125 45.75 16.34375 40.984375 
Q 12.25 36.234375 12.25 26.859375 
" id="ArialMT-67"/>
    </defs>
    <g style="fill:#262626;" transform="translate(794.3415 224.3385)scale(0.19200000000000003 -0.19200000000000003)">
     <use xlink:href="#ArialMT-67"/>
    </g>
   </g>
   <g id="text_67">
    <!-- Final Q-function and resulting policy -->
    <defs>
     <path d="M 40.578125 0 
L 40.578125 7.625 
Q 34.515625 -1.171875 24.125 -1.171875 
Q 19.53125 -1.171875 15.546875 0.578125 
Q 11.578125 2.34375 9.640625 5 
Q 7.71875 7.671875 6.9375 11.53125 
Q 6.390625 14.109375 6.390625 19.734375 
L 6.390625 51.859375 
L 15.1875 51.859375 
L 15.1875 23.09375 
Q 15.1875 16.21875 15.71875 13.8125 
Q 16.546875 10.359375 19.234375 8.375 
Q 21.921875 6.390625 25.875 6.390625 
Q 29.828125 6.390625 33.296875 8.421875 
Q 36.765625 10.453125 38.203125 13.9375 
Q 39.65625 17.4375 39.65625 24.078125 
L 39.65625 51.859375 
L 48.4375 51.859375 
L 48.4375 0 
z
" id="ArialMT-75"/>
     <path d="M 6.390625 0 
L 6.390625 71.578125 
L 15.1875 71.578125 
L 15.1875 0 
z
" id="ArialMT-6c"/>
     <path d="M 6.5 0 
L 6.5 51.859375 
L 14.40625 51.859375 
L 14.40625 44 
Q 17.4375 49.515625 20 51.265625 
Q 22.5625 53.03125 25.640625 53.03125 
Q 30.078125 53.03125 34.671875 50.203125 
L 31.640625 42.046875 
Q 28.421875 43.953125 25.203125 43.953125 
Q 22.3125 43.953125 20.015625 42.21875 
Q 17.71875 40.484375 16.75 37.40625 
Q 15.28125 32.71875 15.28125 27.15625 
L 15.28125 0 
z
" id="ArialMT-72"/>
     <path d="M 40.234375 0 
L 40.234375 6.546875 
Q 35.296875 -1.171875 25.734375 -1.171875 
Q 19.53125 -1.171875 14.328125 2.25 
Q 9.125 5.671875 6.265625 11.796875 
Q 3.421875 17.921875 3.421875 25.875 
Q 3.421875 33.640625 6 39.96875 
Q 8.59375 46.296875 13.765625 49.65625 
Q 18.953125 53.03125 25.34375 53.03125 
Q 30.03125 53.03125 33.6875 51.046875 
Q 37.359375 49.078125 39.65625 45.90625 
L 39.65625 71.578125 
L 48.390625 71.578125 
L 48.390625 0 
z
M 12.453125 25.875 
Q 12.453125 15.921875 16.640625 10.984375 
Q 20.84375 6.0625 26.5625 6.0625 
Q 32.328125 6.0625 36.34375 10.765625 
Q 40.375 15.484375 40.375 25.140625 
Q 40.375 35.796875 36.265625 40.765625 
Q 32.171875 45.75 26.171875 45.75 
Q 20.3125 45.75 16.375 40.96875 
Q 12.453125 36.1875 12.453125 25.875 
" id="ArialMT-64"/>
     <path d="M 40.4375 6.390625 
Q 35.546875 2.25 31.03125 0.53125 
Q 26.515625 -1.171875 21.34375 -1.171875 
Q 12.796875 -1.171875 8.203125 3 
Q 3.609375 7.171875 3.609375 13.671875 
Q 3.609375 17.484375 5.34375 20.625 
Q 7.078125 23.78125 9.890625 25.6875 
Q 12.703125 27.59375 16.21875 28.5625 
Q 18.796875 29.25 24.03125 29.890625 
Q 34.671875 31.15625 39.703125 32.90625 
Q 39.75 34.71875 39.75 35.203125 
Q 39.75 40.578125 37.25 42.78125 
Q 33.890625 45.75 27.25 45.75 
Q 21.046875 45.75 18.09375 43.578125 
Q 15.140625 41.40625 13.71875 35.890625 
L 5.125 37.0625 
Q 6.296875 42.578125 8.984375 45.96875 
Q 11.671875 49.359375 16.75 51.1875 
Q 21.828125 53.03125 28.515625 53.03125 
Q 35.15625 53.03125 39.296875 51.46875 
Q 43.453125 49.90625 45.40625 47.53125 
Q 47.359375 45.171875 48.140625 41.546875 
Q 48.578125 39.3125 48.578125 33.453125 
L 48.578125 21.734375 
Q 48.578125 9.46875 49.140625 6.21875 
Q 49.703125 2.984375 51.375 0 
L 42.1875 0 
Q 40.828125 2.734375 40.4375 6.390625 
M 39.703125 26.03125 
Q 34.90625 24.078125 25.34375 22.703125 
Q 19.921875 21.921875 17.671875 20.9375 
Q 15.4375 19.96875 14.203125 18.09375 
Q 12.984375 16.21875 12.984375 13.921875 
Q 12.984375 10.40625 15.640625 8.0625 
Q 18.3125 5.71875 23.4375 5.71875 
Q 28.515625 5.71875 32.46875 7.9375 
Q 36.421875 10.15625 38.28125 14.015625 
Q 39.703125 17 39.703125 22.796875 
z
" id="ArialMT-61"/>
     <path d="M 6.59375 -19.875 
L 6.59375 51.859375 
L 14.59375 51.859375 
L 14.59375 45.125 
Q 17.4375 49.078125 21 51.046875 
Q 24.5625 53.03125 29.640625 53.03125 
Q 36.28125 53.03125 41.359375 49.609375 
Q 46.4375 46.1875 49.015625 39.953125 
Q 51.609375 33.734375 51.609375 26.3125 
Q 51.609375 18.359375 48.75 11.984375 
Q 45.90625 5.609375 40.453125 2.21875 
Q 35.015625 -1.171875 29 -1.171875 
Q 24.609375 -1.171875 21.109375 0.6875 
Q 17.625 2.546875 15.375 5.375 
L 15.375 -19.875 
z
M 14.546875 25.640625 
Q 14.546875 15.625 18.59375 10.84375 
Q 22.65625 6.0625 28.421875 6.0625 
Q 34.28125 6.0625 38.453125 11.015625 
Q 42.625 15.96875 42.625 26.375 
Q 42.625 36.28125 38.546875 41.203125 
Q 34.46875 46.140625 28.8125 46.140625 
Q 23.1875 46.140625 18.859375 40.890625 
Q 14.546875 35.640625 14.546875 25.640625 
" id="ArialMT-70"/>
     <path d="M 6.203125 -19.96875 
L 5.21875 -11.71875 
Q 8.109375 -12.5 10.25 -12.5 
Q 13.1875 -12.5 14.9375 -11.515625 
Q 16.703125 -10.546875 17.828125 -8.796875 
Q 18.65625 -7.46875 20.515625 -2.25 
Q 20.75 -1.515625 21.296875 -0.09375 
L 1.609375 51.859375 
L 11.078125 51.859375 
L 21.875 21.828125 
Q 23.96875 16.109375 25.640625 9.8125 
Q 27.15625 15.875 29.25 21.625 
L 40.328125 51.859375 
L 49.125 51.859375 
L 29.390625 -0.875 
Q 26.21875 -9.421875 24.46875 -12.640625 
Q 22.125 -17 19.09375 -19.015625 
Q 16.0625 -21.046875 11.859375 -21.046875 
Q 9.328125 -21.046875 6.203125 -19.96875 
" id="ArialMT-79"/>
     <path d="M 25.78125 7.859375 
L 27.046875 0.09375 
Q 23.34375 -0.6875 20.40625 -0.6875 
Q 15.625 -0.6875 12.984375 0.828125 
Q 10.359375 2.34375 9.28125 4.8125 
Q 8.203125 7.28125 8.203125 15.1875 
L 8.203125 45.015625 
L 1.765625 45.015625 
L 1.765625 51.859375 
L 8.203125 51.859375 
L 8.203125 64.703125 
L 16.9375 69.96875 
L 16.9375 51.859375 
L 25.78125 51.859375 
L 25.78125 45.015625 
L 16.9375 45.015625 
L 16.9375 14.703125 
Q 16.9375 10.9375 17.40625 9.859375 
Q 17.875 8.796875 18.921875 8.15625 
Q 19.96875 7.515625 21.921875 7.515625 
Q 23.390625 7.515625 25.78125 7.859375 
" id="ArialMT-74"/>
     <path d="M 8.203125 0 
L 8.203125 71.578125 
L 56.5 71.578125 
L 56.5 63.140625 
L 17.671875 63.140625 
L 17.671875 40.96875 
L 51.265625 40.96875 
L 51.265625 32.515625 
L 17.671875 32.515625 
L 17.671875 0 
z
" id="ArialMT-46"/>
     <path d="M 6.640625 61.46875 
L 6.640625 71.578125 
L 15.4375 71.578125 
L 15.4375 61.46875 
z
M 6.640625 0 
L 6.640625 51.859375 
L 15.4375 51.859375 
L 15.4375 0 
z
" id="ArialMT-69"/>
     <path d="M 42.09375 16.703125 
L 51.171875 15.578125 
Q 49.03125 7.625 43.21875 3.21875 
Q 37.40625 -1.171875 28.375 -1.171875 
Q 17 -1.171875 10.328125 5.828125 
Q 3.65625 12.84375 3.65625 25.484375 
Q 3.65625 38.578125 10.390625 45.796875 
Q 17.140625 53.03125 27.875 53.03125 
Q 38.28125 53.03125 44.875 45.953125 
Q 51.46875 38.875 51.46875 26.03125 
Q 51.46875 25.25 51.421875 23.6875 
L 12.75 23.6875 
Q 13.234375 15.140625 17.578125 10.59375 
Q 21.921875 6.0625 28.421875 6.0625 
Q 33.25 6.0625 36.671875 8.59375 
Q 40.09375 11.140625 42.09375 16.703125 
M 13.234375 30.90625 
L 42.1875 30.90625 
Q 41.609375 37.453125 38.875 40.71875 
Q 34.671875 45.796875 27.984375 45.796875 
Q 21.921875 45.796875 17.796875 41.75 
Q 13.671875 37.703125 13.234375 30.90625 
" id="ArialMT-65"/>
     <path d="M 8.6875 0 
L 8.6875 45.015625 
L 0.921875 45.015625 
L 0.921875 51.859375 
L 8.6875 51.859375 
L 8.6875 57.375 
Q 8.6875 62.59375 9.625 65.140625 
Q 10.890625 68.5625 14.078125 70.671875 
Q 17.28125 72.796875 23.046875 72.796875 
Q 26.765625 72.796875 31.25 71.921875 
L 29.9375 64.265625 
Q 27.203125 64.75 24.75 64.75 
Q 20.75 64.75 19.09375 63.03125 
Q 17.4375 61.328125 17.4375 56.640625 
L 17.4375 51.859375 
L 27.546875 51.859375 
L 27.546875 45.015625 
L 17.4375 45.015625 
L 17.4375 0 
z
" id="ArialMT-66"/>
     <path d="M 3.078125 15.484375 
L 11.765625 16.84375 
Q 12.5 11.625 15.84375 8.84375 
Q 19.1875 6.0625 25.203125 6.0625 
Q 31.25 6.0625 34.171875 8.515625 
Q 37.109375 10.984375 37.109375 14.3125 
Q 37.109375 17.28125 34.515625 19 
Q 32.71875 20.171875 25.53125 21.96875 
Q 15.875 24.421875 12.140625 26.203125 
Q 8.40625 27.984375 6.46875 31.125 
Q 4.546875 34.28125 4.546875 38.09375 
Q 4.546875 41.546875 6.125 44.5 
Q 7.71875 47.46875 10.453125 49.421875 
Q 12.5 50.921875 16.03125 51.96875 
Q 19.578125 53.03125 23.640625 53.03125 
Q 29.734375 53.03125 34.34375 51.265625 
Q 38.96875 49.515625 41.15625 46.5 
Q 43.359375 43.5 44.1875 38.484375 
L 35.59375 37.3125 
Q 35.015625 41.3125 32.203125 43.546875 
Q 29.390625 45.796875 24.265625 45.796875 
Q 18.21875 45.796875 15.625 43.796875 
Q 13.03125 41.796875 13.03125 39.109375 
Q 13.03125 37.40625 14.109375 36.03125 
Q 15.1875 34.625 17.484375 33.6875 
Q 18.796875 33.203125 25.25 31.453125 
Q 34.578125 28.953125 38.25 27.359375 
Q 41.9375 25.78125 44.03125 22.75 
Q 46.140625 19.734375 46.140625 15.234375 
Q 46.140625 10.84375 43.578125 6.953125 
Q 41.015625 3.078125 36.171875 0.953125 
Q 31.34375 -1.171875 25.25 -1.171875 
Q 15.140625 -1.171875 9.84375 3.03125 
Q 4.546875 7.234375 3.078125 15.484375 
" id="ArialMT-73"/>
     <path d="M 3.328125 25.921875 
Q 3.328125 40.328125 11.328125 47.265625 
Q 18.015625 53.03125 27.640625 53.03125 
Q 38.328125 53.03125 45.109375 46.015625 
Q 51.90625 39.015625 51.90625 26.65625 
Q 51.90625 16.65625 48.90625 10.90625 
Q 45.90625 5.171875 40.15625 2 
Q 34.421875 -1.171875 27.640625 -1.171875 
Q 16.75 -1.171875 10.03125 5.8125 
Q 3.328125 12.796875 3.328125 25.921875 
M 12.359375 25.921875 
Q 12.359375 15.96875 16.703125 11.015625 
Q 21.046875 6.0625 27.640625 6.0625 
Q 34.1875 6.0625 38.53125 11.03125 
Q 42.875 16.015625 42.875 26.21875 
Q 42.875 35.84375 38.5 40.796875 
Q 34.125 45.75 27.640625 45.75 
Q 21.046875 45.75 16.703125 40.8125 
Q 12.359375 35.890625 12.359375 25.921875 
" id="ArialMT-6f"/>
     <path id="ArialMT-20"/>
     <path d="M 61.96875 7.671875 
Q 68.5625 3.125 74.125 1.03125 
L 71.34375 -5.5625 
Q 63.625 -2.78125 55.953125 3.21875 
Q 48 -1.21875 38.375 -1.21875 
Q 28.65625 -1.21875 20.75 3.46875 
Q 12.84375 8.15625 8.5625 16.640625 
Q 4.296875 25.140625 4.296875 35.796875 
Q 4.296875 46.390625 8.59375 55.078125 
Q 12.890625 63.765625 20.828125 68.3125 
Q 28.765625 72.859375 38.578125 72.859375 
Q 48.484375 72.859375 56.4375 68.140625 
Q 64.40625 63.421875 68.578125 54.953125 
Q 72.75 46.484375 72.75 35.84375 
Q 72.75 27 70.0625 19.9375 
Q 67.390625 12.890625 61.96875 7.671875 
M 41.109375 19.78125 
Q 49.3125 17.484375 54.640625 12.9375 
Q 62.984375 20.5625 62.984375 35.84375 
Q 62.984375 44.53125 60.03125 51.015625 
Q 57.078125 57.515625 51.390625 61.109375 
Q 45.703125 64.703125 38.625 64.703125 
Q 28.03125 64.703125 21.046875 57.453125 
Q 14.0625 50.203125 14.0625 35.796875 
Q 14.0625 21.828125 20.96875 14.359375 
Q 27.875 6.890625 38.625 6.890625 
Q 43.703125 6.890625 48.1875 8.796875 
Q 43.75 11.671875 38.8125 12.890625 
z
" id="ArialMT-51"/>
     <path d="M 3.171875 21.484375 
L 3.171875 30.328125 
L 30.171875 30.328125 
L 30.171875 21.484375 
z
" id="ArialMT-2d"/>
    </defs>
    <g style="fill:#262626;" transform="translate(319.719 164.4832)scale(0.19200000000000003 -0.19200000000000003)">
     <use xlink:href="#ArialMT-46"/>
     <use x="61.083984375" xlink:href="#ArialMT-69"/>
     <use x="83.30078125" xlink:href="#ArialMT-6e"/>
     <use x="138.916015625" xlink:href="#ArialMT-61"/>
     <use x="194.53125" xlink:href="#ArialMT-6c"/>
     <use x="216.748046875" xlink:href="#ArialMT-20"/>
     <use x="244.53125" xlink:href="#ArialMT-51"/>
     <use x="322.314453125" xlink:href="#ArialMT-2d"/>
     <use x="355.615234375" xlink:href="#ArialMT-66"/>
     <use x="383.3984375" xlink:href="#ArialMT-75"/>
     <use x="439.013671875" xlink:href="#ArialMT-6e"/>
     <use x="494.62890625" xlink:href="#ArialMT-63"/>
     <use x="544.62890625" xlink:href="#ArialMT-74"/>
     <use x="572.412109375" xlink:href="#ArialMT-69"/>
     <use x="594.62890625" xlink:href="#ArialMT-6f"/>
     <use x="650.244140625" xlink:href="#ArialMT-6e"/>
     <use x="705.859375" xlink:href="#ArialMT-20"/>
     <use x="733.642578125" xlink:href="#ArialMT-61"/>
     <use x="789.2578125" xlink:href="#ArialMT-6e"/>
     <use x="844.873046875" xlink:href="#ArialMT-64"/>
     <use x="900.48828125" xlink:href="#ArialMT-20"/>
     <use x="928.271484375" xlink:href="#ArialMT-72"/>
     <use x="961.572265625" xlink:href="#ArialMT-65"/>
     <use x="1017.1875" xlink:href="#ArialMT-73"/>
     <use x="1067.1875" xlink:href="#ArialMT-75"/>
     <use x="1122.802734375" xlink:href="#ArialMT-6c"/>
     <use x="1145.01953125" xlink:href="#ArialMT-74"/>
     <use x="1172.802734375" xlink:href="#ArialMT-69"/>
     <use x="1195.01953125" xlink:href="#ArialMT-6e"/>
     <use x="1250.634765625" xlink:href="#ArialMT-67"/>
     <use x="1306.25" xlink:href="#ArialMT-20"/>
     <use x="1334.033203125" xlink:href="#ArialMT-70"/>
     <use x="1389.6484375" xlink:href="#ArialMT-6f"/>
     <use x="1445.263671875" xlink:href="#ArialMT-6c"/>
     <use x="1467.48046875" xlink:href="#ArialMT-69"/>
     <use x="1489.697265625" xlink:href="#ArialMT-63"/>
     <use x="1539.697265625" xlink:href="#ArialMT-79"/>
    </g>
    <!--  -->
    <g style="fill:#262626;" transform="translate(472.32 185.0158)scale(0.19200000000000003 -0.19200000000000003)"/>
   </g>
  </g>
 </g>
 <defs>
  <clipPath id="pb2c1d81d8a">
   <rect height="238.08" width="714.24" x="115.2" y="189.84"/>
  </clipPath>
 </defs>
</svg>
